<svg xmlns="http://www.w3.org/2000/svg" width="256" height="256" viewBox="0 0 16 16" shape-rendering="crispEdges">
  <rect width="16" height="16" fill="#201a2a"/>
  <rect x="2" y="2" width="2" height="3" fill="#3a2735"/>
  <rect x="12" y="2" width="2" height="3" fill="#3a2735"/>
  <rect x="3" y="3" width="2" height="2" fill="#f9a95c"/>
  <rect x="11" y="3" width="2" height="2" fill="#f9a95c"/>
  <rect x="2" y="5" width="12" height="6" fill="#f9a95c"/>
  <rect x="3" y="4" width="10" height="8" fill="#f9a95c"/>
  <rect x="4" y="5" width="1" height="1" fill="#ffe0a3"/>
  <rect x="11" y="5" width="1" height="1" fill="#ffe0a3"/>
  <rect x="5" y="7" width="1" height="1" fill="#201a2a"/>
  <rect x="10" y="7" width="1" height="1" fill="#201a2a"/>
  <rect x="7" y="8" width="2" height="1" fill="#201a2a"/>
  <rect x="6" y="9" width="1" height="1" fill="#201a2a"/>
  <rect x="9" y="9" width="1" height="1" fill="#201a2a"/>
  <rect x="4" y="11" width="8" height="2" fill="#f9a95c"/>
  <rect x="5" y="13" width="2" height="1" fill="#ffe0a3"/>
  <rect x="9" y="13" width="2" height="1" fill="#ffe0a3"/>
</svg>
